<?xml version="1.0" encoding="utf-8"?>
<!-- Svg Vector Icons : http://www.onlinewebfonts.com/icon -->
<!DOCTYPE svg PUBLIC "-//W3C//DTD SVG 1.1//EN" "http://www.w3.org/Graphics/SVG/1.1/DTD/svg11.dtd">
<svg version="1.1" xmlns="http://www.w3.org/2000/svg" xmlns:xlink="http://www.w3.org/1999/xlink" x="0px" y="0px" viewBox="0 0 1000 1000" enable-background="new 0 0 1000 1000" xml:space="preserve">
<metadata> Svg Vector Icons : http://www.onlinewebfonts.com/icon </metadata>
<g><g transform="translate(0.000000,511.000000) scale(0.100000,-0.100000)"><path d="M4889.4,4851.3c210.2-155.5,600-492.7,665.7-571.6c28.5-32.9,21.9-35-98.5-19.7c-205.8,28.5-880.3,15.3-1013.9-17.5l-118.3-30.7l175.2-72.3c201.5-81,453.3-227.8,444.6-258.4c-4.4-10.9-89.8-46-192.7-78.8c-254-85.4-490.6-212.4-694.2-376.7c-477.4-385.4-729.2-935.1-790.6-1719.1l-15.3-205.9l-138,13.1c-76.6,8.8-229.9,43.8-341.6,81c-448.9,151.1-904.4,455.5-1546.1,1035.8c-148.9,135.8-284.7,251.8-300,262.8c-81,43.8-131.4-547.5-98.5-1134.4c87.6-1552.7,525.6-2678.3,1217.6-3140.4c229.9-153.3,392-210.3,742.4-256.3l109.5-13.1l-142.3-56.9c-201.5-78.8-532.2-81-755.5-8.8c-578.1,192.7-1176,731.4-1730.1,1559.2L100,94.8l13.1-251.8c41.6-672.3,164.2-1182.6,396.4-1642.5C960.7-2693,1827.9-3203.3,2990.7-3260.2l267.2-13.1v-265v-267.1l-475.2-216.8c-473-216.8-477.4-219-527.8-317.5c-59.1-116.1-54.7-227.8,15.3-324.1c61.3-85.4,186.1-144.6,278.1-129.2c39.4,6.6,291.3,111.7,556.2,232.1c265,122.6,492.7,221.2,503.7,221.2c10.9,0,236.5-98.6,501.5-219c262.8-120.4,508.1-225.6,545.3-232.1c41.6-8.8,100.7,2.2,166.4,32.9c83.2,35,109.5,63.5,146.7,146.7c50.4,111.7,43.8,197.1-21.9,306.6c-32.8,54.7-124.8,105.1-514.6,282.5l-473,216.8v289.1v289.1l170.8,15.4c186.1,15.3,431.4,50.4,492.7,67.9c35,11,37.2-13.1,37.2-286.9v-297.8l205.9-96.4c308.8-142.3,453.3-311,492.7-573.8l13.2-96.3l306.6-140.2c381-177.4,418.3-184,551.9-118.3c85.4,43.8,111.7,70.1,146.7,155.5c37.2,89.8,39.4,113.9,15.3,194.9c-15.3,50.4-50.4,111.7-78.8,138c-28.5,26.3-256.2,142.3-503.7,254l-448.9,205.9l4.4,422.7l6.6,424.9l221.2,94.1C6794.7-2353.6,7721-1488.5,8283.8-354.2C8369.2-179,8450.3-3.8,8465.6,35.7l24.1,70.1h525.6c291.3,0,527.8,4.4,527.8,10.9c0,6.6-162.1,234.3-361.3,505.9c-199.3,269.4-367.9,503.7-372.3,519c-6.6,13.1,236.5,258.4,540.9,540.9l549.7,514.6l-692,6.6l-692,4.4l-13.1,105.1c-63.5,488.4-438,1138.8-924.2,1603c-692,661.4-1561.4,1016.1-2667.3,1086.2l-240.9,13.1L4889.4,4851.3z M6766.2,2928.6c477.4-102.9,805.9-575.9,720.5-1040.2c-72.3-394.2-361.3-683.3-755.5-755.5C6137.7,1023.3,5577,1584,5686.5,2177.4C5780.7,2696.4,6266.9,3033.7,6766.2,2928.6z M6987.4-268.8c184-35,278.1-105.1,278.1-208c0-122.6-591.3-775.2-963.6-1064.3c-711.7-549.7-1500.1-904.5-2299.4-1035.8c-249.7-39.4-810.3-67.9-932.9-46c-83.2,17.5-76.6,19.7,155.5,78.9c273.7,70.1,394.2,113.9,650.4,243.1c442.4,221.2,744.6,481.8,1322.7,1138.8c208,236.5,429.2,473,494.9,527.8C6102.6-284.1,6499-172.4,6987.4-268.8z"/><path d="M6608.5,2159.9c-105.1-54.7-197.1-194.9-197.1-302.2c0-30.7,21.9-100.7,50.4-153.3c52.6-105.1,192.7-197.1,300-197.1c107.3,0,247.5,92,302.2,197.1c26.3,52.6,48.2,122.6,48.2,153.3c0,107.3-92,247.5-197.1,302.2c-52.6,26.3-122.6,48.2-153.3,48.2S6661.1,2186.2,6608.5,2159.9z"/></g></g>
</svg>